{"title":"Dead Poets Society (1989) 720p Blu-ray x264 DTS MSubs [DDR]","uid":7593197,"size":5403734808,"categoryP":"video","categoryS":"hd___movies","magnet":"?xt=urn:btih:cbd3d58972a85a987dba20aa09bb71a6e49424b8&amp;dn=Dead+Poets+Society+%281989%29+720p+Blu-ray+x264+DTS+MSubs+%5BDDR%5D&amp;tr=udp%3A%2F%2Ftracker.openbittorrent.com%3A80&amp;tr=udp%3A%2F%2Fopen.demonii.com%3A1337&amp;tr=udp%3A%2F%2Ftracker.coppersurfer.tk%3A6969&amp;tr=udp%3A%2F%2Fexodus.desync.com%3A6969","seeders":0,"leechers":0,"uploader":"SaM","files":-1,"time":1346613850,"description":"\nFormat                                   : Matroska\nFormat version                           : Version 2\nFile size                                : 4.97 GiB\nDuration                                 : 2h 10mn\nOverall bit rate                         : 5 462 Kbps\nEncoded date                             : UTC 2012-08-31 22:08:07\nWriting application                      : mkvmerge v5.7.0 ('The Whirlwind') built on Jul  8 2012 20:08:51\nWriting library                          : libebml v1.2.3 + libmatroska v1.3.0\n\nVideo\nID                                       : 1\nFormat                                   : AVC\nFormat/Info                              : Advanced Video Codec\nFormat profile                           : &lt;a class=&quot;__cf_email__&quot; href=&quot;/cdn-cgi/l/email-protection&quot; data-cfemail=&quot;f1b9989699b1bdc5dfc0&quot;&gt;[email&amp;#160;protected]&lt;/a&gt;&lt;script data-cfhash='f9e31' type=&quot;text/javascript&quot;&gt;\n/* &lt;![CDATA[ */!function(){try{var t=&quot;currentScript&quot;in document?document.currentScript:function(){for(var t=document.getElementsByTagName(&quot;script&quot;),e=t.length;e--;)if(t[e].getAttribute(&quot;data-cfhash&quot;))return t[e]}();if(t&amp;&amp;t.previousSibling){var e,r,n,i,c=t.previousSibling,a=c.getAttribute(&quot;data-cfemail&quot;);if(a){for(e=&quot;&quot;,r=parseInt(a.substr(0,2),16),n=2;a.length-n;n+=2)i=parseInt(a.substr(n,2),16)^r,e+=String.fromCharCode(i);e=document.createTextNode(e),c.parentNode.replaceChild(e,c)}t.parentNode.removeChild(t);}}catch(u){}}()/* ]]&gt; */&lt;/script&gt;\nFormat settings, CABAC                   : Yes\nFormat settings, ReFrames                : 9 frames\nMuxing mode                              : Header stripping\nCodec ID                                 : V_MPEG4/ISO/AVC\nDuration                                 : 2h 10mn\nBit rate                                 : 3 999 Kbps\nWidth                                    : 1 280 pixels\nHeight                                   : 688 pixels\nDisplay aspect ratio                     : 1.85:1\nFrame rate                               : 23.976 fps\nColor space                              : YUV\nChroma subsampling                       : 4:2:0\nBit depth                                : 8 bits\nScan type                                : Progressive\nBits/(Pixel*Frame)                       : 0.189\nStream size                              : 3.49 GiB (70%)\n\nLanguage                                 : English\nDefault                                  : Yes\nForced                                   : No\n\nAudio\nID                                       : 2\nFormat                                   : DTS\nFormat/Info                              : Digital Theater Systems\nMuxing mode                              : Header stripping\nCodec ID                                 : A_DTS\nDuration                                 : 2h 10mn\nBit rate mode                            : Constant\nBit rate                                 : 1 510 Kbps\nChannel(s)                               : 6 channels\nChannel positions                        : Front: L C R, Side: L R, LFE\nSampling rate                            : 48.0 KHz\nBit depth                                : 24 bits\nCompression mode                         : Lossy\nStream size                              : 1.37 GiB (28%)\nDefault                                  : Yes\nForced                                   : No\n &lt;a href=&quot;\nhttp://img17.imageshack.us/img17/2764/79549942.png&quot; rel=&quot;nofollow&quot; target=&quot;_NEW&quot;&gt;\nhttp://img17.imageshack.us/img17/2764/79549942.png&lt;/a&gt;\n &lt;a href=&quot;\nhttp://img705.imageshack.us/img705/7176/93905879.png&quot; rel=&quot;nofollow&quot; target=&quot;_NEW&quot;&gt;\nhttp://img705.imageshack.us/img705/7176/93905879.png&lt;/a&gt;\n &lt;a href=&quot;\nhttp://img840.imageshack.us/img840/1348/95690479.png&quot; rel=&quot;nofollow&quot; target=&quot;_NEW&quot;&gt;\nhttp://img840.imageshack.us/img840/1348/95690479.png&lt;/a&gt;\n &lt;a href=&quot;\nhttp://img838.imageshack.us/img838/1228/87775725.png&quot; rel=&quot;nofollow&quot; target=&quot;_NEW&quot;&gt;\nhttp://img838.imageshack.us/img838/1228/87775725.png&lt;/a&gt;\n &lt;a href=&quot;\nhttp://img6.imageshack.us/img6/569/30317671.png&quot; rel=&quot;nofollow&quot; target=&quot;_NEW&quot;&gt;\nhttp://img6.imageshack.us/img6/569/30317671.png&lt;/a&gt;\n","torrent":{"xt":"urn:btih:cbd3d58972a85a987dba20aa09bb71a6e49424b8","amp;dn":"Dead+Poets+Society+%281989%29+720p+Blu-ray+x264+DTS+MSubs+%5BDDR%5D","amp;tr":["udp%3A%2F%2Ftracker.openbittorrent.com%3A80","udp%3A%2F%2Fopen.demonii.com%3A1337","udp%3A%2F%2Ftracker.coppersurfer.tk%3A6969","udp%3A%2F%2Fexodus.desync.com%3A6969"],"infoHash":"cbd3d58972a85a987dba20aa09bb71a6e49424b8","infoHashBuffer":{"type":"Buffer","data":[203,211,213,137,114,168,90,152,125,186,32,170,9,187,113,166,228,148,36,184]},"announce":[],"urlList":[]}}